<svg xmlns="http://www.w3.org/2000/svg" viewBox="0 0 643.33 237.2"><title>logo</title><g data-name="Layer 1"><g fill="#181818"><path d="M248.7 91.8H260v51h-11.3v-20h-20.3v20H217V92h11.4v21.4h20.3zM305 143h-10.3V138a13 13 0 0 1-10.5 5.3 15.6 15.6 0 0 1-10.5-3.6 12 12 0 0 1-4.2-9.8q0-6 4.4-9t12-3h8v-.2q0-6.3-6.7-6.3a18 18 0 0 0-6 1 19.6 19.6 0 0 0-5.3 3l-5-7a29.4 29.4 0 0 1 17.8-5.8q7 0 11.7 3.5t4.5 11.3zm-11-15v-2h-7q-6.5 0-6.5 4a3.8 3.8 0 0 0 1.6 3.3 7.6 7.6 0 0 0 4.6 1.2 8 8 0 0 0 5-1.8 5.8 5.8 0 0 0 2.4-4.8zM326 143h-11V88.6h11zM370.5 137.2a22 22 0 0 1-15.7 6.3q-9 0-14.8-5.5t-5.8-14.8q0-9.3 6-14.8a20 20 0 0 1 14-5.5 20.4 20.4 0 0 1 13.8 4.8q5.7 5 5.7 13.5v5.8H345a7.8 7.8 0 0 0 3.4 5.4 10.8 10.8 0 0 0 6.4 2 12.6 12.6 0 0 0 9.5-4zM360 114a8.3 8.3 0 0 0-5.6-2 10 10 0 0 0-6 2 7.6 7.6 0 0 0-3 5.3h17a7.8 7.8 0 0 0-2.5-5.4zM392.5 121v22h-11v-39.4h11v4.4a15.3 15.3 0 0 1 11.2-5 13.8 13.8 0 0 1 10.5 4.4q4.2 4.4 4.2 11.7v24h-11v-22.3q0-9-6.7-9a8 8 0 0 0-5.7 2.3q-2.5 2.4-2.5 7zM461 91.8h11.5v51H461v-20H441v20h-11.4V92h11.4v21.4H461zM517.4 143H507V138a13 13 0 0 1-10.4 5.3A15.6 15.6 0 0 1 486 140a12 12 0 0 1-4-9.8q0-6 4.3-9t12-3h8.2v-.2q0-6.3-6.7-6.3a18 18 0 0 0-6 1 19.6 19.6 0 0 0-5.4 3l-5-7a29.3 29.3 0 0 1 17.8-5.8q7.2 0 11.7 3.5t4.5 11.3zm-11-15v-2h-7q-6.5 0-6.5 4a3.8 3.8 0 0 0 1.5 3.3 7.6 7.6 0 0 0 4.5 1.2 8 8 0 0 0 5.2-1.8 5.8 5.8 0 0 0 2.2-4.8zM548 113.2q-4.8 0-7.2 3.5a15.8 15.8 0 0 0-2.4 9.2v17h-11v-39.4h11v5.2a18.4 18.4 0 0 1 5.3-4 14.4 14.4 0 0 1 6.5-2v10.4zM572.7 143.5q-7 0-12.4-6a20.8 20.8 0 0 1-5.5-14.6q0-9 5.3-14.5a16.8 16.8 0 0 1 12.6-5.6 15 15 0 0 1 11.7 5V88.6h11V143h-11v-5.3a14.2 14.2 0 0 1-11.6 5.8zm-7-20.2a11 11 0 0 0 3 7.8 9 9 0 0 0 6.6 3 8.3 8.3 0 0 0 6.5-3 11.4 11.4 0 0 0 2.7-7.7 12 12 0 0 0-2.7-8 8.2 8.2 0 0 0-6.5-3.2 8.5 8.5 0 0 0-6.7 3.3 11.8 11.8 0 0 0-2.8 8zM612.5 158.4q-5.8 0-11-4.7l5-8a8.2 8.2 0 0 0 5.8 2.6 3.2 3.2 0 0 0 2.6-1.5 5.3 5.3 0 0 0 1-3.2q0-1.6-15.2-40h11.7L622 128l9.7-24.4h11.7L625 150a13 13 0 0 1-5 6.2 13.5 13.5 0 0 1-7.5 2.2z"/></g><path d="M99 14.3c28 0 56 8.6 85.8 26 3.7 78-12.6 150.6-85.8 181.7C25.8 191 9.4 118.4 13.2 40.2 42.8 23 71 14.2 99 14.2" fill="#fff"/><path d="M25.7 115.6c9.5 46.2 32.3 78 68.6 96.6v-96.6z" fill="#5c5c5c"/><path d="M178.7 44C153 29.5 129 22 105.2 20.7v191.5c53-26.8 77-82 73.5-168.2z" fill="#047ba4"/><g fill="#181818"><ellipse cx="90.1" cy="28.2" rx="1.3" ry="1.2"/><ellipse cx="90.1" cy="33.8" rx="1.3" ry="1.2"/><ellipse cx="90.1" cy="39.5" rx="1.3" ry="1.2"/><ellipse cx="90.1" cy="45.1" rx="1.3" ry="1.2"/><ellipse cx="90.1" cy="50.8" rx="1.3" ry="1.2"/><ellipse cx="90.1" cy="56.4" rx="1.3" ry="1.2"/><ellipse cx="90.1" cy="62.1" rx="1.3" ry="1.2"/><ellipse cx="90.1" cy="67.7" rx="1.3" ry="1.2"/><ellipse cx="90.1" cy="73.4" rx="1.3" ry="1.2"/><ellipse cx="90.1" cy="79" rx="1.3" ry="1.2"/><ellipse cx="90.1" cy="84.7" rx="1.3" ry="1.2"/><ellipse cx="90.1" cy="90.3" rx="1.3" ry="1.2"/><ellipse cx="90.1" cy="96" rx="1.3" ry="1.2"/><ellipse cx="90.1" cy="101.6" rx="1.3" ry="1.2"/><ellipse cx="90.1" cy="107.3" rx="1.3" ry="1.2"/><ellipse cx="84.3" cy="28.2" rx="1.3" ry="1.2"/><ellipse cx="84.3" cy="33.8" rx="1.3" ry="1.2"/><ellipse cx="84.3" cy="39.5" rx="1.3" ry="1.2"/><ellipse cx="84.3" cy="45.1" rx="1.3" ry="1.2"/><ellipse cx="84.3" cy="50.8" rx="1.3" ry="1.2"/><ellipse cx="84.3" cy="56.4" rx="1.3" ry="1.2"/><ellipse cx="84.3" cy="62.1" rx="1.3" ry="1.2"/><ellipse cx="84.3" cy="67.7" rx="1.3" ry="1.2"/><ellipse cx="84.3" cy="73.4" rx="1.3" ry="1.2"/><ellipse cx="84.3" cy="79" rx="1.3" ry="1.2"/><ellipse cx="84.3" cy="84.7" rx="1.3" ry="1.2"/><ellipse cx="84.3" cy="90.3" rx="1.3" ry="1.2"/><ellipse cx="84.3" cy="96" rx="1.3" ry="1.2"/><ellipse cx="84.3" cy="101.6" rx="1.3" ry="1.2"/><ellipse cx="84.3" cy="107.3" rx="1.3" ry="1.2"/><ellipse cx="78.6" cy="28.2" rx="1.3" ry="1.2"/><ellipse cx="78.6" cy="33.8" rx="1.3" ry="1.2"/><ellipse cx="78.6" cy="39.5" rx="1.3" ry="1.2"/><ellipse cx="78.6" cy="45.1" rx="1.3" ry="1.2"/><ellipse cx="78.6" cy="50.8" rx="1.3" ry="1.2"/><ellipse cx="78.6" cy="56.4" rx="1.3" ry="1.2"/><ellipse cx="78.6" cy="62.1" rx="1.3" ry="1.2"/><ellipse cx="78.6" cy="67.7" rx="1.3" ry="1.2"/><ellipse cx="78.6" cy="73.4" rx="1.3" ry="1.2"/><ellipse cx="78.6" cy="79" rx="1.3" ry="1.2"/><ellipse cx="78.6" cy="84.7" rx="1.3" ry="1.2"/><ellipse cx="78.6" cy="90.3" rx="1.3" ry="1.2"/><ellipse cx="78.6" cy="96" rx="1.3" ry="1.2"/><ellipse cx="78.6" cy="101.6" rx="1.3" ry="1.2"/><ellipse cx="78.6" cy="107.3" rx="1.3" ry="1.2"/><ellipse cx="72.8" cy="33.8" rx="1.3" ry="1.2"/><ellipse cx="72.8" cy="39.5" rx="1.3" ry="1.2"/><ellipse cx="72.8" cy="45.1" rx="1.3" ry="1.2"/><ellipse cx="72.8" cy="50.8" rx="1.3" ry="1.2"/><ellipse cx="72.8" cy="56.4" rx="1.3" ry="1.2"/><ellipse cx="72.8" cy="62.1" rx="1.3" ry="1.2"/><ellipse cx="72.8" cy="67.7" rx="1.3" ry="1.2"/><ellipse cx="72.8" cy="73.4" rx="1.3" ry="1.2"/><ellipse cx="72.8" cy="79" rx="1.3" ry="1.2"/><ellipse cx="72.8" cy="84.7" rx="1.3" ry="1.2"/><ellipse cx="72.8" cy="90.3" rx="1.3" ry="1.2"/><ellipse cx="72.8" cy="96" rx="1.3" ry="1.2"/><ellipse cx="72.8" cy="101.6" rx="1.3" ry="1.2"/><ellipse cx="72.8" cy="107.3" rx="1.3" ry="1.2"/><ellipse cx="67.1" cy="33.8" rx="1.3" ry="1.2"/><ellipse cx="67.1" cy="39.5" rx="1.3" ry="1.2"/><ellipse cx="67.1" cy="45.1" rx="1.3" ry="1.2"/><ellipse cx="67.1" cy="50.8" rx="1.3" ry="1.2"/><ellipse cx="67.1" cy="56.4" rx="1.3" ry="1.2"/><ellipse cx="67.1" cy="62.1" rx="1.3" ry="1.2"/><ellipse cx="67.1" cy="67.7" rx="1.3" ry="1.2"/><ellipse cx="67.1" cy="73.4" rx="1.3" ry="1.2"/><ellipse cx="67.1" cy="79" rx="1.3" ry="1.2"/><ellipse cx="67.1" cy="84.7" rx="1.3" ry="1.2"/><ellipse cx="67.1" cy="90.3" rx="1.3" ry="1.2"/><ellipse cx="67.1" cy="96" rx="1.3" ry="1.2"/><ellipse cx="67.1" cy="101.6" rx="1.3" ry="1.2"/><ellipse cx="67.1" cy="107.3" rx="1.3" ry="1.2"/><ellipse cx="61.4" cy="33.8" rx="1.3" ry="1.2"/><ellipse cx="61.4" cy="39.5" rx="1.3" ry="1.2"/><ellipse cx="61.4" cy="45.1" rx="1.3" ry="1.2"/><ellipse cx="61.4" cy="50.8" rx="1.3" ry="1.2"/><ellipse cx="61.4" cy="56.4" rx="1.3" ry="1.2"/><ellipse cx="61.4" cy="62.1" rx="1.3" ry="1.2"/><ellipse cx="61.4" cy="67.7" rx="1.3" ry="1.2"/><ellipse cx="61.4" cy="73.4" rx="1.3" ry="1.2"/><ellipse cx="61.4" cy="79" rx="1.3" ry="1.2"/><ellipse cx="61.4" cy="84.7" rx="1.3" ry="1.2"/><ellipse cx="61.4" cy="90.3" rx="1.3" ry="1.2"/><ellipse cx="61.4" cy="96" rx="1.3" ry="1.2"/><ellipse cx="61.4" cy="101.6" rx="1.3" ry="1.2"/><ellipse cx="61.4" cy="107.3" rx="1.3" ry="1.2"/><ellipse cx="55.6" cy="33.8" rx="1.3" ry="1.2"/><ellipse cx="55.6" cy="39.5" rx="1.3" ry="1.2"/><ellipse cx="55.6" cy="45.1" rx="1.3" ry="1.2"/><ellipse cx="55.6" cy="50.8" rx="1.3" ry="1.2"/><ellipse cx="55.6" cy="56.4" rx="1.3" ry="1.2"/><ellipse cx="55.6" cy="62.1" rx="1.3" ry="1.2"/><ellipse cx="55.6" cy="67.7" rx="1.3" ry="1.2"/><ellipse cx="55.6" cy="73.4" rx="1.3" ry="1.2"/><ellipse cx="55.6" cy="79" rx="1.3" ry="1.2"/><ellipse cx="55.6" cy="84.7" rx="1.3" ry="1.2"/><ellipse cx="55.6" cy="90.3" rx="1.3" ry="1.2"/><ellipse cx="55.6" cy="96" rx="1.3" ry="1.2"/><ellipse cx="55.6" cy="101.6" rx="1.3" ry="1.2"/><ellipse cx="55.6" cy="107.3" rx="1.3" ry="1.2"/><ellipse cx="49.9" cy="39.5" rx="1.3" ry="1.2"/><ellipse cx="49.9" cy="45.1" rx="1.3" ry="1.2"/><ellipse cx="49.9" cy="50.8" rx="1.3" ry="1.2"/><ellipse cx="49.9" cy="56.4" rx="1.3" ry="1.2"/><ellipse cx="49.9" cy="62.1" rx="1.3" ry="1.2"/><ellipse cx="49.9" cy="67.7" rx="1.3" ry="1.2"/><ellipse cx="49.9" cy="73.4" rx="1.3" ry="1.2"/><ellipse cx="49.9" cy="79" rx="1.3" ry="1.2"/><ellipse cx="49.9" cy="84.7" rx="1.3" ry="1.2"/><ellipse cx="49.9" cy="90.3" rx="1.3" ry="1.2"/><ellipse cx="49.9" cy="96" rx="1.3" ry="1.2"/><ellipse cx="49.9" cy="101.6" rx="1.3" ry="1.2"/><ellipse cx="49.9" cy="107.3" rx="1.3" ry="1.2"/><ellipse cx="44.2" cy="39.5" rx="1.3" ry="1.2"/><ellipse cx="44.2" cy="45.1" rx="1.3" ry="1.2"/><ellipse cx="44.2" cy="50.8" rx="1.3" ry="1.2"/><ellipse cx="44.2" cy="56.4" rx="1.3" ry="1.2"/><ellipse cx="44.2" cy="62.1" rx="1.3" ry="1.2"/><ellipse cx="44.2" cy="67.7" rx="1.3" ry="1.2"/><ellipse cx="44.2" cy="73.4" rx="1.3" ry="1.2"/><ellipse cx="44.2" cy="79" rx="1.3" ry="1.2"/><ellipse cx="44.2" cy="84.7" rx="1.3" ry="1.2"/><ellipse cx="44.2" cy="90.3" rx="1.3" ry="1.2"/><ellipse cx="44.2" cy="96" rx="1.3" ry="1.2"/><ellipse cx="44.2" cy="101.6" rx="1.3" ry="1.2"/><ellipse cx="44.2" cy="107.3" rx="1.3" ry="1.2"/><ellipse cx="38.5" cy="45.1" rx="1.3" ry="1.2"/><ellipse cx="38.5" cy="50.8" rx="1.3" ry="1.2"/><ellipse cx="38.5" cy="56.4" rx="1.3" ry="1.2"/><ellipse cx="38.5" cy="62.1" rx="1.3" ry="1.2"/><ellipse cx="38.5" cy="67.7" rx="1.3" ry="1.2"/><ellipse cx="38.5" cy="73.4" rx="1.3" ry="1.2"/><ellipse cx="38.5" cy="79" rx="1.3" ry="1.2"/><ellipse cx="38.5" cy="84.7" rx="1.3" ry="1.2"/><ellipse cx="38.5" cy="90.3" rx="1.3" ry="1.2"/><ellipse cx="38.5" cy="96" rx="1.3" ry="1.2"/><ellipse cx="38.5" cy="101.6" rx="1.3" ry="1.2"/><ellipse cx="38.5" cy="107.3" rx="1.3" ry="1.2"/><ellipse cx="32.7" cy="45.1" rx="1.3" ry="1.2"/><ellipse cx="32.7" cy="50.8" rx="1.3" ry="1.2"/><ellipse cx="32.7" cy="56.4" rx="1.3" ry="1.2"/><ellipse cx="32.7" cy="62.1" rx="1.3" ry="1.2"/><ellipse cx="32.7" cy="67.7" rx="1.3" ry="1.2"/><ellipse cx="32.7" cy="73.4" rx="1.3" ry="1.2"/><ellipse cx="32.7" cy="79" rx="1.3" ry="1.2"/><ellipse cx="32.7" cy="84.7" rx="1.3" ry="1.2"/><ellipse cx="32.7" cy="90.3" rx="1.3" ry="1.2"/><ellipse cx="32.7" cy="96" rx="1.3" ry="1.2"/><ellipse cx="32.7" cy="101.6" rx="1.3" ry="1.2"/><ellipse cx="32.7" cy="107.3" rx="1.3" ry="1.2"/><ellipse cx="27" cy="50.8" rx="1.3" ry="1.2"/><ellipse cx="27" cy="56.4" rx="1.3" ry="1.2"/><ellipse cx="27" cy="62.1" rx="1.3" ry="1.2"/><ellipse cx="27" cy="67.7" rx="1.3" ry="1.2"/><ellipse cx="27" cy="73.4" rx="1.3" ry="1.2"/><ellipse cx="27" cy="79" rx="1.3" ry="1.2"/><ellipse cx="27" cy="84.7" rx="1.3" ry="1.2"/><ellipse cx="27" cy="90.3" rx="1.3" ry="1.2"/><ellipse cx="27" cy="96" rx="1.3" ry="1.2"/><ellipse cx="27" cy="101.6" rx="1.3" ry="1.2"/><ellipse cx="27" cy="107.3" rx="1.3" ry="1.2"/></g><g fill="#fff"><ellipse cx="109.8" cy="203.5" rx="1.4" ry="1.3"/><ellipse cx="109.8" cy="197.4" rx="1.4" ry="1.3"/><ellipse cx="109.8" cy="191.3" rx="1.4" ry="1.3"/><ellipse cx="109.8" cy="185.3" rx="1.4" ry="1.3"/><ellipse cx="109.8" cy="179.2" rx="1.4" ry="1.3"/><ellipse cx="109.8" cy="173.2" rx="1.4" ry="1.3"/><ellipse cx="109.8" cy="167.1" rx="1.4" ry="1.3"/><ellipse cx="115.9" cy="197.4" rx="1.4" ry="1.3"/><ellipse cx="115.9" cy="191.3" rx="1.4" ry="1.3"/><ellipse cx="115.9" cy="185.3" rx="1.4" ry="1.3"/><ellipse cx="115.9" cy="179.2" rx="1.4" ry="1.3"/><ellipse cx="115.9" cy="173.2" rx="1.4" ry="1.3"/><ellipse cx="115.9" cy="167.1" rx="1.4" ry="1.3"/><ellipse cx="122.1" cy="197.4" rx="1.4" ry="1.3"/><ellipse cx="122.1" cy="191.3" rx="1.4" ry="1.3"/><ellipse cx="122.1" cy="185.3" rx="1.4" ry="1.3"/><ellipse cx="122.1" cy="179.2" rx="1.4" ry="1.3"/><ellipse cx="122.1" cy="173.2" rx="1.4" ry="1.3"/><ellipse cx="122.1" cy="167.1" rx="1.4" ry="1.3"/><ellipse cx="122.1" cy="161.1" rx="1.4" ry="1.3"/><ellipse cx="128.2" cy="191.3" rx="1.4" ry="1.3"/><ellipse cx="128.2" cy="185.3" rx="1.4" ry="1.3"/><ellipse cx="128.2" cy="179.2" rx="1.4" ry="1.3"/><ellipse cx="128.2" cy="173.2" rx="1.4" ry="1.3"/><ellipse cx="128.2" cy="167.1" rx="1.4" ry="1.3"/><ellipse cx="128.2" cy="161.1" rx="1.4" ry="1.3"/><ellipse cx="134.4" cy="185.3" rx="1.4" ry="1.3"/><ellipse cx="134.4" cy="179.2" rx="1.4" ry="1.3"/><ellipse cx="134.4" cy="173.2" rx="1.4" ry="1.3"/><ellipse cx="134.4" cy="167.1" rx="1.4" ry="1.3"/><ellipse cx="134.4" cy="161.1" rx="1.4" ry="1.3"/><ellipse cx="134.4" cy="155" rx="1.4" ry="1.3"/><ellipse cx="140.5" cy="179.2" rx="1.4" ry="1.3"/><ellipse cx="140.5" cy="173.2" rx="1.4" ry="1.3"/><ellipse cx="140.5" cy="167.1" rx="1.4" ry="1.3"/><ellipse cx="140.5" cy="161.1" rx="1.4" ry="1.3"/><ellipse cx="140.5" cy="155" rx="1.4" ry="1.3"/><ellipse cx="146.7" cy="173.2" rx="1.4" ry="1.3"/><ellipse cx="146.7" cy="167.1" rx="1.4" ry="1.3"/><ellipse cx="146.7" cy="161.1" rx="1.4" ry="1.3"/><ellipse cx="146.7" cy="155" rx="1.4" ry="1.3"/><ellipse cx="146.7" cy="149" rx="1.4" ry="1.3"/><ellipse cx="152.8" cy="161.1" rx="1.4" ry="1.3"/><ellipse cx="152.8" cy="155" rx="1.4" ry="1.3"/><ellipse cx="152.8" cy="149" rx="1.4" ry="1.3"/><ellipse cx="152.8" cy="142.9" rx="1.4" ry="1.3"/><ellipse cx="152.8" cy="136.9" rx="1.4" ry="1.3"/><ellipse cx="158.9" cy="149" rx="1.4" ry="1.3"/><ellipse cx="158.9" cy="142.9" rx="1.4" ry="1.3"/><ellipse cx="158.9" cy="136.9" rx="1.4" ry="1.3"/><ellipse cx="158.9" cy="130.8" rx="1.4" ry="1.3"/><ellipse cx="158.9" cy="124.8" rx="1.4" ry="1.3"/><ellipse cx="158.9" cy="118.7" rx="1.4" ry="1.3"/><ellipse cx="165.1" cy="136.9" rx="1.4" ry="1.3"/><ellipse cx="165.1" cy="130.8" rx="1.4" ry="1.3"/><ellipse cx="165.1" cy="124.8" rx="1.4" ry="1.3"/><ellipse cx="165.1" cy="118.7" rx="1.4" ry="1.3"/></g><path d="M99 14.3c28 0 56 8.6 85.8 26 3.7 78-12.6 150.6-85.8 181.7C25.8 191 9.4 118.4 13.2 40.2 42.8 23 71 14.2 99 14.2M99 0C69.2 0 38.7 9 6.7 28L1 31.7.5 39c-4.2 76 12.8 161.4 94.7 196.6l3.7 1.6 3.7-1.6c81.8-35.2 98.8-120.4 94.6-196.6l-.2-7.4-5.8-3.6C159.2 9 128.7 0 99 0z" fill="#181818"/><circle cx="99" cy="109.6" r="65" fill="#181818"/><g fill="#fff"><path d="M81.7 85H78l3.7 3.7V105h-16V85H50l3.7 3.7v44l-3.6 3.6h15.2V122l-7.3-6.8h23.3v17.5l-3.5 3.6h15.3V85H81.7M145.3 133V88.6l3.5-3.6h-15.2v20h-16V89L121 85H105.8v51.3H121l-3.4-3.4v-11l-7.3-6.8h23.3v21H149l-3.7-3.3"/></g></g></svg>