<svg xmlns="http://www.w3.org/2000/svg" viewBox="0 0 730.87 232.4">
    <path id="shade" d="M730.87,0V79.74c-1.12,0-2.27.12-3.44.22-58.45,5.13-52.28,51.14-103.66,51.6h-1.2c-25.68-.08-45.71-7.25-68.66-15.1-8.94-3-18.38-5.16-27.2-5.09-12.4.1-23.55,4.52-30.27,16.73-10,18.19,3.13,42-12.06,57.81-5.87,6.11-15.61,9.64-25.27,9.58a36.62,36.62,0,0,1-8.24-1c-12-2.85-21.11-12-21.92-21.81-.54-6.51,2.23-13,1.36-19.51-1.38-10.28-13-19.1-26-19.8-.61,0-1.22,0-1.84,0a34.38,34.38,0,0,0-10.62,1.83,49.64,49.64,0,0,0-12.57,19.6c-4.91,14.29-4.41,29.43-8.72,43.83s-15.4,29.12-33.5,32.9a41.81,41.81,0,0,1-8.09.87h-.76c-15.57-.08-30.81-8.34-39.08-19.17-18.7-24.5-14.89-53.92-14.64-81.19.08-8.35.06-17-4.57-24.55-4.43-7.15-13-12.42-22.66-14.69-1.42-.33-2.87-.6-4.34-.8a45.66,45.66,0,0,0-5.85-.43h-2c-28.76.57-35.46,18.81-38.84,37.71-2,11.34-3.39,32.72-22.94,33.23-.24,0-.48,0-.73,0h-.37C125.75,162,166,54.13,133.44,43.82a60.48,60.48,0,0,0-17.75-3c-.73,0-1.45,0-2.16,0-14.19.34-25.67,5.64-41.82,5.92-.84,0-1.69,0-2.56,0a85.67,85.67,0,0,1-20.57-3C20,36.28,12.26,15,0,0Zm-481,93c-3-.69-6.19-1.3-9.8-1.82Z" fill="#1a171b" opacity="0.2" style="mix-blend-mode: soft-light"/>
</svg>
